<?xml version="1.0" standalone="no"?>
<!DOCTYPE svg PUBLIC "-//W3C//DTD SVG 20010904//EN"
 "http://www.w3.org/TR/2001/REC-SVG-20010904/DTD/svg10.dtd">
<svg version="1.0" xmlns="http://www.w3.org/2000/svg"
 width="913.000000pt" height="913.000000pt" viewBox="0 0 913.000000 913.000000"
 preserveAspectRatio="xMidYMid meet">
<metadata>
Created by potrace 1.11, written by Peter Selinger 2001-2013
</metadata>
<g transform="translate(0.000000,913.000000) scale(0.100000,-0.100000)"
fill="#000000" stroke="none">
<path d="M860 9120 c0 -6 -4 -9 -8 -6 -5 3 -7 -9 -4 -27 3 -25 1 -29 -7 -17
-8 12 -11 7 -11 -21 0 -34 18 -56 43 -51 4 1 7 -3 7 -9 0 -5 5 -7 10 -4 6 3
10 -1 10 -10 0 -15 2 -15 17 1 13 13 14 19 5 22 -7 2 -10 8 -6 13 8 14 24 11
24 -6 0 -8 5 -15 11 -15 5 0 7 6 3 13 -6 9 -5 9 8 0 12 -11 18 -9 34 9 17 20
17 21 1 9 -16 -13 -19 -12 -24 7 -3 12 -13 22 -22 22 -10 0 -12 3 -5 8 6 4 14
14 17 22 4 12 6 11 6 -2 2 -29 31 -21 31 8 0 17 -4 23 -12 18 -7 -5 -9 -2 -6
7 4 11 -8 15 -58 17 -43 2 -64 0 -64 -8z m80 -20 c0 -5 -5 -10 -11 -10 -5 0
-7 5 -4 10 3 6 8 10 11 10 2 0 4 -4 4 -10z m-31 -51 c-20 -20 -40 -18 -38 4 0
8 2 8 6 -1 8 -20 33 6 26 26 -6 15 -4 15 9 4 15 -12 15 -15 -3 -33z"/>
<path d="M985 9040 c-3 -6 1 -7 9 -4 18 7 21 14 7 14 -6 0 -13 -4 -16 -10z"/>
<path d="M4175 6370 c-3 -5 -1 -10 4 -10 6 0 11 5 11 10 0 6 -2 10 -4 10 -3 0
-8 -4 -11 -10z"/>
<path d="M3976 6352 c-4 -4 -24 -7 -44 -8 -20 0 -54 -8 -76 -17 -21 -10 -48
-17 -60 -17 -24 0 -144 -76 -185 -117 -14 -13 -30 -22 -38 -19 -7 3 -13 -1
-13 -9 0 -7 -19 -29 -42 -49 -73 -63 -204 -226 -256 -317 -38 -67 -41 -74 -57
-128 -16 -53 -18 -74 -31 -285 l-6 -109 -41 -44 -41 -44 12 -87 c14 -101 15
-272 2 -322 -13 -50 -14 -102 -4 -125 21 -44 50 -85 61 -85 6 0 13 -6 16 -12
2 -7 7 2 11 20 9 40 19 40 63 2 18 -16 40 -30 48 -30 8 0 26 -17 41 -37 42
-57 46 -61 35 -30 -14 35 -14 84 -1 92 16 10 50 -14 50 -35 0 -11 -3 -20 -7
-20 -5 0 -9 -26 -9 -58 -1 -31 -7 -83 -14 -115 -10 -50 -15 -58 -31 -54 -18 5
-19 0 -12 -109 4 -81 3 -114 -5 -114 -7 0 -9 -7 -5 -17 4 -10 2 -14 -4 -10 -7
5 -14 -5 -18 -24 -5 -23 -9 -28 -16 -18 -5 8 -9 11 -9 6 0 -4 5 -16 12 -26 9
-16 8 -27 -7 -60 -10 -23 -15 -44 -12 -47 3 -4 0 -13 -8 -21 -8 -8 -15 -25
-15 -38 0 -13 -10 -31 -22 -39 l-22 -16 24 -1 c17 -1 19 -3 8 -6 -25 -6 -22
-20 4 -26 21 -6 21 -7 4 -26 -17 -19 -17 -20 5 -31 17 -9 19 -14 8 -20 -7 -5
-17 -6 -21 -4 -4 3 -8 0 -8 -6 0 -6 6 -13 14 -16 15 -6 11 -34 -7 -45 -12 -9
1 -31 14 -24 5 4 9 1 9 -4 0 -6 -7 -11 -15 -11 -20 0 -19 -19 0 -27 9 -3 23
-19 31 -35 14 -27 14 -31 -3 -45 -17 -14 -17 -14 4 -10 20 4 21 2 16 -27 -3
-17 -13 -35 -20 -39 -12 -7 -11 -12 6 -28 22 -21 28 -49 11 -49 -17 0 0 -100
23 -140 51 -88 130 -171 228 -241 56 -40 105 -82 111 -95 6 -12 21 -27 34 -33
28 -12 31 -14 98 -73 46 -41 89 -57 101 -37 13 19 25 8 14 -12 -7 -14 -7 -19
0 -15 5 4 28 -10 49 -31 21 -21 67 -53 102 -70 l63 -33 48 45 c27 25 53 45 59
45 6 0 18 7 26 15 17 17 34 20 34 5 0 -5 7 -7 15 -4 8 4 15 2 15 -4 0 -6 -17
-13 -39 -17 -24 -4 -49 -18 -67 -36 l-29 -30 30 15 c71 37 84 3 20 -56 -26
-24 -56 -55 -67 -70 -34 -48 5 -34 73 27 33 30 71 55 83 55 86 0 92 2 124 31
17 16 32 26 32 20 0 -5 13 -14 29 -19 23 -8 29 -8 25 2 -3 7 2 19 11 26 8 7
15 9 15 4 0 -5 25 -9 55 -9 30 0 55 4 55 8 0 5 5 5 10 2 12 -7 60 39 144 140
33 39 66 77 75 85 9 8 22 27 28 43 7 15 18 27 24 27 9 0 9 3 0 14 -17 21 3 68
25 59 13 -5 16 -3 11 10 -3 9 -2 17 2 17 5 0 11 -6 14 -12 3 -10 14 -8 42 7
36 19 37 19 51 0 8 -10 14 -26 14 -35 0 -9 13 -29 30 -45 28 -27 31 -27 48
-12 27 25 60 21 85 -9 12 -15 41 -48 65 -73 39 -42 43 -45 56 -28 7 9 17 17
22 17 5 0 37 -29 71 -64 51 -53 65 -63 87 -59 32 7 42 -2 119 -96 33 -42 70
-83 81 -90 12 -8 41 -34 65 -58 24 -23 51 -45 61 -48 27 -8 60 -61 71 -113 11
-56 35 -230 49 -362 10 -91 17 -123 45 -200 27 -73 68 -218 85 -300 l17 -85
16 35 c8 19 16 28 16 20 1 -8 -5 -27 -13 -41 -17 -34 -29 -96 -20 -110 7 -12
28 38 45 106 13 52 25 63 31 30 4 -17 1 -28 -8 -32 -21 -8 -17 -27 9 -38 18
-8 21 -16 19 -50 -2 -22 -9 -43 -15 -47 -9 -6 -9 -8 1 -8 20 0 14 -17 -9 -23
-12 -3 -18 -10 -14 -16 12 -21 -14 -11 -29 11 -9 12 -17 20 -20 17 -9 -9 7
-138 17 -132 5 3 7 25 4 50 -4 41 -3 43 12 28 10 -8 23 -15 30 -15 6 0 14 -7
17 -15 3 -8 14 -17 24 -20 11 -4 17 -12 13 -21 -3 -7 0 -14 5 -14 6 0 9 -9 7
-21 -3 -15 0 -19 10 -15 9 3 15 0 15 -8 0 -8 -7 -16 -15 -20 -8 -3 -15 -1 -15
5 0 6 -5 7 -11 3 -8 -5 -6 -10 5 -16 17 -9 21 -44 8 -65 -4 -6 -21 -19 -37
-28 l-30 -17 39 7 c36 6 38 5 33 -14 -3 -14 0 -21 9 -21 18 0 18 -10 -3 -40
-11 -16 -13 -25 -5 -28 8 -2 8 -8 -1 -23 -9 -15 -9 -23 0 -38 7 -10 9 -21 6
-24 -3 -4 -7 -52 -8 -109 -3 -112 -8 -148 -24 -191 -6 -16 -9 -32 -7 -36 7
-10 -22 -103 -35 -116 -8 -7 -10 8 -7 53 4 65 -5 84 -16 32 -4 -20 -14 -34
-31 -40 -14 -5 -25 -11 -25 -14 0 -6 23 -2 38 8 22 13 24 2 12 -85 -7 -46 -13
-96 -15 -111 -5 -37 22 -38 36 -1 31 81 80 351 103 568 33 305 33 303 52 407
15 78 22 94 63 145 33 41 66 68 112 93 36 19 90 51 120 71 30 20 117 66 194
103 368 175 547 320 749 604 59 85 113 166 119 182 8 22 8 48 -1 99 -11 64
-10 72 12 127 13 33 27 77 30 99 l7 40 -16 -30 c-12 -25 -14 -26 -8 -5 3 14 6
79 6 145 0 92 -4 128 -17 153 -9 17 -17 35 -18 39 -2 18 -22 53 -29 53 -4 0
-11 9 -14 20 -3 11 -10 20 -16 20 -5 0 0 -15 11 -32 11 -18 20 -40 20 -48 0
-9 9 -23 19 -32 17 -14 19 -26 15 -84 -5 -76 -14 -98 -15 -38 0 29 -2 34 -8
19 -5 -11 -14 -20 -20 -20 -13 0 -36 -51 -50 -110 -4 -18 -14 -31 -26 -33 -11
-2 -37 -21 -58 -43 -25 -26 -42 -36 -54 -32 -10 4 -14 2 -10 -4 13 -20 -61
-38 -93 -23 -8 4 -26 4 -40 -1 -23 -6 -23 -7 8 -8 l33 -1 -20 -21 c-11 -12
-24 -18 -29 -15 -6 3 -22 1 -36 -5 -25 -12 -25 -13 -7 -28 14 -12 16 -22 10
-39 -5 -13 -13 -20 -19 -17 -5 3 -10 1 -10 -6 0 -6 8 -9 20 -6 11 3 20 1 20
-5 0 -5 -9 -12 -20 -15 -27 -7 -25 -21 3 -26 19 -3 15 -7 -23 -25 -30 -13 -38
-21 -25 -22 20 -1 20 -1 1 -15 -22 -17 -40 -20 -31 -6 3 6 -3 15 -14 21 -13 7
-22 7 -26 0 -4 -7 -12 -7 -24 0 -10 5 -22 6 -26 2 -3 -4 -6 -2 -4 3 4 18 -13
45 -35 57 -19 10 -19 9 3 -16 14 -14 19 -26 13 -26 -19 0 -43 45 -36 66 4 10
4 16 -1 12 -4 -4 -26 7 -48 25 -23 17 -41 31 -42 29 0 -2 -13 2 -30 8 -16 6
-36 13 -44 15 -7 3 -10 12 -7 21 6 16 -17 48 -28 37 -3 -3 -21 6 -40 21 -19
14 -41 26 -48 26 -7 0 -38 13 -69 30 -31 16 -59 26 -63 23 -7 -7 -56 43 -56
58 0 5 -6 9 -14 9 -8 0 -16 10 -20 23 -8 33 -57 76 -91 81 -59 9 -75 18 -92
57 -18 40 -28 48 -36 27 -3 -8 -6 -5 -6 6 -1 13 -6 16 -18 12 -15 -5 -15 -4 1
9 11 8 18 16 15 18 -2 1 -17 9 -34 17 -16 8 -34 21 -38 27 -4 7 -29 23 -55 34
-52 24 -63 35 -54 57 3 9 1 13 -4 10 -12 -7 -46 5 -44 16 1 5 -9 14 -22 20
-14 8 -22 19 -20 30 3 15 -1 18 -17 13 -14 -3 -21 0 -21 9 0 8 -9 19 -20 26
-11 7 -20 17 -20 21 0 5 -7 15 -15 24 -18 17 -15 49 3 46 6 -2 9 4 6 12 -8 21
-19 19 -37 -7 -13 -19 -16 -20 -16 -5 -1 19 -21 24 -21 5 0 -6 -3 -9 -6 -6 -3
4 -1 15 5 26 9 17 8 22 -9 27 -11 3 -19 12 -17 18 1 7 -8 11 -20 10 -17 -2
-23 2 -23 18 0 11 -4 18 -9 15 -18 -11 -43 6 -38 26 4 14 1 18 -9 14 -8 -3
-14 1 -14 8 0 8 -11 17 -25 20 -16 4 -25 13 -25 25 0 11 -5 21 -11 23 -5 2
-11 12 -13 23 -2 15 -10 19 -29 17 -19 -2 -26 3 -31 21 -3 13 -17 30 -31 37
-18 9 -25 20 -22 32 3 11 0 18 -10 18 -8 0 -37 22 -64 50 -26 27 -51 45 -54
39 -9 -14 -25 -1 -25 22 0 10 -6 18 -12 17 -8 -2 -13 8 -13 27 0 24 -5 31 -23
33 -15 2 -22 9 -18 17 2 7 -2 16 -10 19 -9 3 -12 1 -9 -4 9 -14 -61 28 -75 46
-7 7 -19 14 -26 14 -8 0 -14 7 -14 15 0 8 -12 18 -26 21 -15 4 -21 10 -15 13
6 4 -5 14 -27 24 -23 10 -44 30 -56 51 -10 20 -23 33 -27 30 -5 -3 -10 3 -10
13 -6 88 -13 98 -73 94 -40 -2 -49 2 -83 36 -21 22 -50 45 -65 53 -16 7 -28
20 -28 27 0 9 -9 13 -24 11 -30 -4 -56 18 -56 49 l0 24 -33 -25 c-42 -32 -92
-35 -100 -6 -4 15 -14 20 -37 20 -27 0 -32 3 -27 20 4 16 -2 22 -34 30 -21 6
-39 17 -39 24 0 8 -11 17 -24 20 -13 3 -26 14 -29 25 -3 11 -17 22 -35 26 -17
3 -33 13 -36 21 -3 8 -14 18 -23 22 -35 14 -163 115 -163 128 0 11 -5 11 -24
3 -15 -7 -30 -8 -42 -2 -11 6 -30 7 -44 3 -14 -4 -33 -3 -43 2 -14 7 -24 2
-46 -21 -16 -17 -34 -31 -40 -31 -7 0 -27 -16 -47 -35 -30 -31 -33 -36 -17
-41 10 -3 27 -9 38 -14 17 -8 16 -9 -8 -9 -16 -1 -55 11 -88 27 -47 21 -61 34
-70 60 -6 17 -16 32 -22 32 -15 0 -100 79 -115 106 -7 13 -8 32 -3 50 5 20 3
36 -7 52 -9 15 -13 35 -9 59 4 19 2 58 -4 84 -9 43 -8 52 10 78 23 32 127 89
266 146 50 21 129 57 176 81 118 60 149 60 212 -4 26 -27 45 -51 42 -54 -5 -5
203 -164 292 -222 30 -20 63 -30 120 -37 69 -9 132 -33 136 -53 4 -17 -32 -24
-72 -15 -24 5 -45 8 -47 6 -9 -9 273 -207 296 -207 5 0 10 -3 10 -7 0 -5 14
-9 30 -10 17 -1 37 -9 45 -17 8 -8 31 -20 50 -26 19 -6 35 -18 35 -26 0 -19
53 -51 118 -70 28 -8 52 -20 52 -26 0 -5 -7 -8 -15 -4 -10 4 -15 -1 -15 -15 0
-11 6 -19 13 -18 30 4 47 -2 47 -16 0 -17 0 -17 50 -21 19 -1 36 -7 38 -14 3
-8 9 -7 20 2 10 7 14 8 10 4 -10 -12 22 -35 49 -36 13 0 28 -9 35 -20 7 -11
23 -20 35 -20 12 0 25 -4 28 -10 3 -5 16 -10 29 -10 32 0 76 -23 76 -39 0 -8
3 -11 7 -8 3 4 12 2 19 -3 6 -6 16 -10 20 -9 15 4 68 -13 91 -29 18 -11 21
-18 12 -34 -6 -10 -8 -24 -5 -31 2 -7 5 -4 5 6 1 20 4 20 70 5 53 -12 61 -27
37 -68 -8 -12 -6 -12 10 1 36 30 55 31 82 3 15 -14 28 -21 30 -16 6 18 57 -3
57 -24 0 -13 6 -18 19 -16 10 2 25 -3 34 -11 10 -7 32 -20 50 -27 18 -7 31
-18 28 -25 -2 -7 15 -17 45 -25 27 -8 49 -19 49 -27 0 -7 9 -13 19 -13 11 0
34 -15 51 -34 20 -20 39 -32 49 -29 10 2 23 -3 30 -11 8 -9 20 -16 28 -16 8 0
28 -11 43 -24 22 -18 26 -26 17 -35 -9 -10 -6 -11 15 -6 26 7 60 -12 58 -31
-1 -4 14 -12 32 -18 23 -8 34 -19 38 -36 3 -14 11 -25 18 -26 36 -3 42 -5 42
-14 0 -16 52 -70 61 -64 5 3 9 1 9 -5 0 -6 6 -8 13 -6 6 3 27 -8 46 -24 23
-20 29 -30 20 -34 -10 -4 -9 -6 4 -6 9 -1 17 -5 17 -11 0 -5 7 -10 16 -10 10
0 14 -6 11 -14 -4 -9 2 -17 14 -21 20 -7 26 -25 8 -25 -6 0 -9 -7 -6 -15 4 -8
2 -17 -4 -20 -5 -4 -7 -11 -4 -16 4 -5 1 -9 -5 -9 -6 0 -8 -5 -5 -10 4 -6 11
-8 16 -4 17 10 89 14 89 5 0 -5 9 -11 21 -14 11 -3 23 -15 26 -26 3 -11 14
-23 24 -26 10 -4 19 -13 19 -20 0 -19 44 -62 59 -57 11 4 63 -37 121 -94 14
-14 28 -22 32 -19 3 3 11 -1 18 -10 7 -8 19 -15 26 -15 8 0 14 -4 14 -8 0 -8
43 -32 55 -32 2 0 -14 19 -35 43 -22 23 -40 46 -40 50 0 5 -5 5 -10 2 -6 -3
-18 7 -28 24 -9 17 -26 35 -37 41 -12 6 -25 21 -30 32 -6 12 -18 25 -27 30
-44 21 -53 27 -51 37 2 6 -2 11 -8 11 -6 0 -9 11 -7 24 3 26 -26 66 -49 66 -7
0 -13 5 -13 10 0 6 -6 10 -14 10 -7 0 -16 9 -19 21 -3 12 -10 18 -16 14 -6 -3
-11 1 -11 11 0 13 -3 14 -15 4 -12 -10 -18 -10 -30 0 -8 7 -15 18 -15 24 0 7
-16 18 -36 25 -27 10 -33 16 -23 22 10 6 5 10 -17 15 -21 4 -31 12 -30 22 0
10 -6 17 -14 17 -8 0 -17 5 -20 10 -11 22 -108 105 -122 105 -9 0 -19 10 -22
23 -7 20 -8 20 -15 4 -6 -17 -8 -18 -20 -3 -8 9 -29 24 -47 32 -33 16 -45 34
-23 34 5 0 7 5 4 10 -3 6 -15 10 -26 10 -10 0 -19 6 -19 14 0 16 -27 29 -41
20 -5 -3 -9 0 -9 5 0 6 -7 11 -15 11 -8 0 -15 3 -15 8 -1 24 -40 55 -76 59
-23 2 -49 14 -65 29 -14 13 -32 24 -40 24 -9 0 -35 18 -60 40 -24 22 -50 38
-57 35 -7 -3 -15 2 -18 10 -5 13 -34 28 -59 30 -5 0 -26 16 -46 35 -26 26 -60
43 -125 63 -49 16 -98 37 -109 47 -11 10 -67 43 -125 72 -193 100 -305 161
-335 184 -27 20 -101 47 -132 49 -15 0 -41 25 -28 25 6 0 -6 8 -25 18 -20 9
-54 31 -77 47 -43 31 -47 48 -20 100 16 31 19 76 21 325 l1 235 -43 74 c-24
41 -49 100 -57 130 -37 152 -64 220 -117 298 -15 23 -28 46 -28 51 0 11 -100
149 -122 169 -20 18 -115 95 -156 126 -20 15 -62 41 -92 57 -30 17 -62 34 -70
39 -15 8 -34 16 -139 52 -30 10 -60 24 -67 30 -11 9 -18 8 -29 -1 -8 -6 -20
-8 -26 -4 -7 4 -73 8 -148 8 -75 1 -141 5 -147 9 -6 3 -14 3 -18 -1z m-383
-1600 c2 -32 1 -48 -4 -40 -5 7 -8 36 -8 63 1 60 6 50 12 -23z m6 -201 c-5
-31 -9 -75 -9 -98 0 -33 -4 -43 -16 -43 -9 0 -14 -6 -11 -12 2 -7 9 -12 15
-11 16 4 20 -42 5 -56 -12 -11 -14 -10 -11 5 2 13 -3 19 -14 18 -13 -1 -18 6
-18 23 0 14 -4 22 -11 18 -10 -7 -7 33 8 95 4 14 6 28 5 32 -1 4 3 19 8 34 6
16 7 31 1 38 -5 6 -7 29 -5 51 1 22 3 49 3 59 1 10 14 -7 30 -39 27 -53 29
-62 20 -114z m386 -65 c38 28 185 -13 185 -52 0 -7 -8 -17 -17 -22 -46 -24
-234 -32 -259 -11 -25 21 -17 58 19 79 27 17 34 18 42 6 9 -12 13 -12 30 0z
m-335 -161 c0 -8 -4 -15 -10 -15 -5 0 -7 7 -4 15 4 8 8 15 10 15 2 0 4 -7 4
-15z m-10 -45 c0 -13 -5 -18 -15 -14 -16 7 -19 17 -8 27 12 13 23 7 23 -13z
m53 -124 c18 -8 47 -30 66 -47 30 -29 33 -36 28 -76 -6 -51 -8 -56 -32 -47
-13 5 -15 14 -11 36 3 16 2 27 -3 23 -15 -8 -41 6 -41 22 0 9 -8 23 -19 32
-10 9 -21 35 -24 61 -3 25 -4 38 -1 28 3 -9 20 -23 37 -32z m1377 -79 c0 -19
-1 -20 -20 -2 -11 10 -20 27 -20 38 0 19 1 20 20 2 11 -10 20 -27 20 -38z
m-826 -75 c6 -10 -14 -34 -42 -50 -19 -10 -22 -10 -22 5 0 32 49 68 64 45z
m-360 -46 c30 -19 67 -36 82 -38 27 -3 27 -4 10 -20 -25 -25 -73 -23 -96 5
-11 12 -31 35 -45 50 -44 50 -26 51 49 3z m1338 -128 c46 -46 128 -122 183
-169 165 -143 488 -487 447 -476 -13 3 -39 -1 -59 -10 -20 -8 -64 -19 -97 -24
-34 -6 -91 -20 -128 -31 -65 -21 -69 -21 -104 -5 -68 33 -116 33 -181 0 -53
-27 -63 -29 -118 -21 -33 5 -70 6 -82 3 -23 -5 -53 27 -73 80 -9 23 -8 26 5
21 8 -3 15 -1 15 5 0 6 10 8 23 4 19 -5 20 -5 4 5 -17 11 -16 13 4 41 11 16
17 29 12 28 -26 -5 -34 2 -27 24 4 12 11 25 17 28 5 4 7 14 4 23 -4 9 -2 16 3
16 10 0 6 63 -6 81 -3 6 1 18 9 27 8 9 18 28 22 42 4 14 16 37 26 52 21 29 25
78 8 95 -8 8 -6 16 8 30 18 18 18 18 0 33 -23 19 -30 106 -14 151 6 16 12 29
13 29 2 0 40 -37 86 -82z m-761 12 c5 0 9 -4 9 -9 0 -12 -37 -24 -49 -16 -15
9 0 37 16 31 8 -3 19 -6 24 -6z m-24 -94 c37 0 54 -4 58 -14 3 -8 12 -11 21
-8 10 4 14 1 12 -6 -3 -7 -19 -18 -36 -23 -37 -13 -54 -26 -22 -18 17 4 21 2
18 -8 -3 -8 -13 -13 -22 -13 -19 2 -22 -12 -3 -20 15 -6 -121 3 -145 10 -9 3
-25 0 -35 -7 -15 -9 -27 -8 -56 4 -21 9 -37 12 -37 6 0 -14 -43 0 -53 17 -4 8
-16 14 -25 14 -15 0 -15 2 -2 10 10 6 16 6 19 -1 1 -5 8 -3 15 6 16 22 82 31
111 15 13 -7 32 -9 42 -5 15 6 15 8 3 13 -8 3 -20 11 -27 18 -19 19 3 24 62
16 28 -4 73 -7 102 -6z m2688 -336 c-3 -5 -10 -10 -16 -10 -5 0 -9 5 -9 10 0
6 7 10 16 10 8 0 12 -4 9 -10z m-3243 -732 c-13 -13 -24 5 -16 27 7 16 8 16
17 0 6 -11 6 -20 -1 -27z m2683 -9 c-10 -15 -25 -10 -19 6 4 8 10 12 15 9 5
-3 7 -10 4 -15z m-2125 -59 c-18 -12 -43 -13 -36 -2 2 4 15 8 28 9 18 2 19 0
8 -7z m2416 -142 l19 -21 -27 18 c-29 18 -34 25 -20 25 5 0 17 -10 28 -22z
m54 -28 c0 -5 -2 -10 -4 -10 -3 0 -8 5 -11 10 -3 6 -1 10 4 10 6 0 11 -4 11
-10z m445 -30 c-3 -5 -10 -10 -16 -10 -5 0 -9 5 -9 10 0 6 7 10 16 10 8 0 12
-4 9 -10z m344 -7 c-6 -10 -23 -27 -37 -37 -21 -15 -20 -12 7 17 38 41 47 46
30 20z m-966 -13 c32 -11 76 -34 98 -50 22 -16 55 -32 72 -36 18 -3 44 -15 59
-25 14 -11 31 -19 38 -19 6 0 55 -20 107 -45 118 -56 162 -67 227 -54 59 11
113 41 221 121 l80 60 -71 -69 c-118 -116 -227 -155 -357 -128 -84 18 -121 19
-112 5 4 -7 -8 -8 -34 -4 -44 7 -58 -9 -19 -22 19 -6 20 -8 6 -18 -8 -6 -17
-16 -19 -22 -3 -8 -19 -5 -49 10 -43 20 -45 23 -42 61 2 33 1 37 -9 22 -8 -14
-18 -17 -37 -12 -15 4 -31 12 -35 18 -6 9 -10 9 -14 0 -2 -7 -9 -13 -14 -13
-5 0 -9 6 -9 13 0 6 -24 30 -53 53 -44 34 -137 144 -122 144 2 0 19 -9 37 -20
40 -24 60 -26 33 -2 -22 19 -50 52 -43 52 2 0 30 -9 61 -20z m-98 -152 c21
-35 56 -82 79 -105 22 -24 35 -43 28 -43 -6 0 -16 9 -22 20 -6 11 -17 20 -24
20 -22 0 -116 139 -116 170 0 20 16 2 55 -62z m-545 16 c0 -32 30 -30 45 4 5
12 15 20 22 18 6 -3 13 0 15 5 5 14 58 -7 58 -22 0 -6 8 -23 19 -37 10 -15 24
-45 32 -67 7 -22 17 -44 21 -49 15 -18 8 -27 -14 -21 -21 6 -22 5 -5 -8 21
-18 22 -28 1 -20 -14 5 -14 3 -3 -16 8 -11 17 -21 21 -21 4 0 6 -8 6 -17 -1
-10 2 -28 6 -40 5 -14 3 -23 -3 -23 -6 0 -11 -11 -11 -25 0 -14 5 -25 10 -25
6 0 10 -4 10 -9 0 -5 12 -28 27 -50 19 -29 34 -41 50 -41 40 0 17 -17 -25 -18
-32 -1 -42 3 -60 28 -12 16 -22 35 -22 42 -1 16 -66 88 -81 88 -5 0 -8 -4 -5
-9 4 -5 -3 -7 -14 -4 -11 3 -20 1 -20 -4 0 -13 60 -93 70 -93 5 0 25 -23 45
-50 20 -28 42 -47 47 -43 7 4 8 1 3 -6 -4 -8 2 -21 14 -33 l22 -19 -7 25 c-9
35 10 33 36 -5 22 -29 22 -31 4 -52 -46 -52 -43 -51 -72 -30 -15 11 -28 30
-30 42 -2 11 -9 21 -17 21 -31 0 -116 179 -130 274 -4 31 -10 45 -16 39 -19
-19 43 -324 73 -357 4 -6 8 -23 8 -39 0 -15 11 -43 25 -61 26 -34 25 -49 -3
-39 -13 4 -12 2 3 -10 16 -13 17 -17 6 -31 -12 -14 -15 -13 -33 10 -15 18 -19
33 -14 56 4 20 1 37 -7 47 -22 25 -54 126 -82 251 -14 63 -28 125 -30 138 -3
12 -9 22 -14 22 -5 0 -7 -9 -4 -20 4 -15 2 -19 -10 -15 -29 12 -48 270 -23
329 14 33 18 36 36 26 12 -6 20 -21 20 -36z m369 -66 c27 -74 11 -76 -19 -3
-12 30 -29 55 -36 55 -10 0 -5 -15 16 -52 54 -92 140 -268 132 -268 -30 0
-142 170 -167 254 -16 53 -20 108 -8 120 13 13 61 -49 82 -106z m1175 100
c-22 -38 -77 -95 -106 -112 -30 -17 -29 -15 17 34 72 77 106 106 89 78z
m-1364 -59 c0 -6 -4 -7 -10 -4 -5 3 -10 11 -10 16 0 6 5 7 10 4 6 -3 10 -11
10 -16z m53 -32 c-3 -4 -1 -13 5 -20 16 -21 22 -46 9 -41 -15 5 -37 51 -37 76
0 16 2 17 14 6 8 -7 12 -17 9 -21z m184 9 c10 -13 24 -32 31 -42 11 -18 12
-17 7 4 -4 12 -4 22 -2 22 8 0 47 -70 47 -85 0 -7 6 -16 13 -18 9 -4 9 -6 0
-6 -6 -1 -19 9 -28 22 -15 22 -16 22 -13 -11 2 -25 14 -44 46 -73 45 -42 46
-52 2 -85 -17 -14 -45 19 -91 108 -37 74 -37 88 0 23 16 -27 39 -59 51 -70 15
-14 11 -2 -14 35 -20 30 -36 59 -36 65 0 5 -11 33 -25 60 -13 28 -25 56 -25
63 0 19 17 14 37 -12z m-510 -28 c-3 -8 -6 -5 -6 6 -1 11 2 17 5 13 3 -3 4
-12 1 -19z m894 -29 c11 -5 17 -14 14 -20 -7 -11 -45 7 -45 21 0 13 7 13 31
-1z m200 -87 c-13 -2 -27 0 -32 5 -6 6 3 7 23 4 28 -4 29 -6 9 -9z m-421 -140
c0 -10 5 -23 11 -29 8 -8 7 -13 -1 -18 -7 -4 -21 2 -33 13 -17 17 -18 23 -7
36 17 21 30 20 30 -2z m50 -62 c0 -5 -4 -10 -10 -10 -5 0 -10 5 -10 10 0 6 5
10 10 10 6 0 10 -4 10 -10z m-626 -94 c9 -27 16 -57 16 -65 -1 -22 -36 56 -45
99 -10 49 8 27 29 -34z m380 -22 c3 -8 2 -12 -4 -9 -6 3 -10 10 -10 16 0 14 7
11 14 -7z m-214 -94 c0 -5 -4 -10 -9 -10 -6 0 -13 5 -16 10 -3 6 1 10 9 10 9
0 16 -4 16 -10z m176 -27 c-10 -10 -19 5 -10 18 6 11 8 11 12 0 2 -7 1 -15 -2
-18z m-129 -5 c4 -7 9 -22 10 -32 3 -19 3 -19 -16 -2 -21 19 -41 14 -41 -9 0
-7 12 -23 26 -34 24 -19 24 -20 3 -18 -12 1 -28 11 -36 23 -12 19 -11 25 4 53
19 33 37 39 50 19z m103 -18 c0 -5 -5 -10 -11 -10 -5 0 -7 5 -4 10 3 6 8 10
11 10 2 0 4 -4 4 -10z m-272 -65 c-3 -3 -9 2 -12 12 -6 14 -5 15 5 6 7 -7 10
-15 7 -18z m192 -32 c-29 -52 -58 -89 -64 -82 -5 5 71 119 80 119 3 0 -4 -17
-16 -37z m-60 -97 c0 -3 -4 -8 -10 -11 -5 -3 -10 -1 -10 4 0 6 5 11 10 11 6 0
10 -2 10 -4z m-60 -16 c0 -5 -2 -10 -4 -10 -3 0 -8 5 -11 10 -3 6 -1 10 4 10
6 0 11 -4 11 -10z m61 -25 c1 -17 -18 -17 -25 0 -4 11 -1 15 10 13 8 -2 15 -7
15 -13z m94 -65 c-11 -5 -33 -9 -50 -9 -23 -1 -26 2 -15 9 8 5 31 9 50 9 29 0
31 -2 15 -9z m-45 -120 c0 -5 -4 -10 -9 -10 -6 0 -13 5 -16 10 -3 6 1 10 9 10
9 0 16 -4 16 -10z m25 -20 c3 -6 -4 -10 -17 -10 -18 0 -20 2 -8 10 19 12 18
12 25 0z m-35 -34 c0 -11 -19 -15 -25 -6 -3 5 1 10 9 10 9 0 16 -2 16 -4z
m-14 -46 c14 0 23 -4 20 -8 -7 -11 -64 -3 -73 11 -4 7 0 8 11 4 10 -4 29 -7
42 -7z m-46 -924 c0 -8 -4 -18 -10 -21 -5 -3 -10 3 -10 14 0 12 5 21 10 21 6
0 10 -6 10 -14z"/>
<path d="M6935 2210 c3 -5 8 -10 11 -10 2 0 4 5 4 10 0 6 -5 10 -11 10 -5 0
-7 -4 -4 -10z"/>
<path d="M6182 2018 c2 -6 10 -14 16 -16 7 -2 10 2 6 12 -7 18 -28 22 -22 4z"/>
<path d="M6345 1640 c10 -11 20 -20 23 -20 3 0 -3 9 -13 20 -10 11 -20 20 -23
20 -3 0 3 -9 13 -20z"/>
<path d="M6380 1644 c0 -14 3 -14 15 -4 8 7 15 14 15 16 0 2 -7 4 -15 4 -8 0
-15 -7 -15 -16z"/>
<path d="M3829 4753 c-13 -16 -12 -17 4 -4 16 13 21 21 13 21 -2 0 -10 -8 -17
-17z"/>
<path d="M5031 4615 c12 -19 28 -35 36 -35 8 0 26 -9 40 -20 14 -11 23 -20 19
-20 -19 0 37 -59 66 -70 18 -6 41 -16 51 -21 25 -13 21 1 -10 34 -16 17 -22
27 -15 23 7 -4 12 -2 12 5 0 10 3 10 12 1 7 -7 17 -12 23 -12 17 1 -39 40 -57
40 -9 0 -18 -6 -21 -12 -3 -9 -17 0 -39 22 -48 47 -65 60 -72 53 -3 -3 -15 6
-27 20 -30 39 -42 33 -18 -8z"/>
<path d="M5162 4601 c-11 -7 -11 -9 2 -14 10 -4 16 -1 16 8 0 17 -1 17 -18 6z"/>
<path d="M5290 4486 c0 -8 5 -18 10 -21 6 -3 10 3 10 14 0 12 -4 21 -10 21 -5
0 -10 -6 -10 -14z"/>
<path d="M5328 4453 c7 -3 16 -2 19 1 4 3 -2 6 -13 5 -11 0 -14 -3 -6 -6z"/>
<path d="M5445 4390 c3 -5 13 -10 21 -10 8 0 12 5 9 10 -3 6 -13 10 -21 10 -8
0 -12 -4 -9 -10z"/>
<path d="M3262 4368 c2 -6 20 -23 39 -37 l34 -25 -34 37 c-37 39 -45 45 -39
25z"/>
<path d="M5870 4220 c0 -5 5 -10 10 -10 6 0 10 5 10 10 0 6 -4 10 -10 10 -5 0
-10 -4 -10 -10z"/>
<path d="M5400 3826 c0 -8 5 -18 10 -21 6 -3 10 3 10 14 0 12 -4 21 -10 21 -5
0 -10 -6 -10 -14z"/>
<path d="M5560 3742 c0 -11 5 -24 10 -27 6 -4 9 2 7 14 -4 29 -17 39 -17 13z"/>
<path d="M6940 3530 c0 -5 5 -10 10 -10 6 0 10 5 10 10 0 6 -4 10 -10 10 -5 0
-10 -4 -10 -10z"/>
<path d="M7011 3474 c0 -11 3 -14 6 -6 3 7 2 16 -1 19 -3 4 -6 -2 -5 -13z"/>
<path d="M6920 3429 c0 -23 7 -24 25 -5 12 12 11 15 -5 19 -15 4 -20 0 -20
-14z"/>
<path d="M7040 3435 c-8 -9 -8 -15 -2 -15 12 0 26 19 19 26 -2 2 -10 -2 -17
-11z"/>
<path d="M7640 2981 c0 -5 5 -13 10 -16 6 -3 10 -2 10 4 0 5 -4 13 -10 16 -5
3 -10 2 -10 -4z"/>
<path d="M3355 2940 c4 -6 11 -8 16 -5 5 3 6 -1 2 -10 -3 -10 -2 -20 4 -24 5
-3 28 -31 51 -62 22 -31 52 -66 66 -77 15 -11 26 -24 26 -30 0 -5 9 -30 20
-55 20 -44 55 -77 84 -77 17 0 12 10 -45 96 -15 22 -30 54 -34 72 -3 17 -10
32 -15 32 -4 0 -13 14 -20 30 -7 17 -16 30 -19 30 -4 0 -30 20 -57 45 -27 25
-57 45 -67 45 -10 0 -15 -5 -12 -10z"/>
<path d="M3150 2822 c0 -25 56 -106 108 -155 85 -82 219 -183 229 -174 2 3
-18 22 -44 43 -109 87 -209 182 -250 238 -24 32 -43 54 -43 48z"/>
<path d="M3580 2795 c-12 -15 4 -55 55 -140 13 -22 24 -47 24 -55 1 -18 58
-56 97 -66 16 -4 53 -24 83 -44 39 -27 72 -40 109 -44 28 -4 52 -3 52 1 0 12
-59 33 -76 26 -18 -7 -18 8 -1 32 19 24 53 15 107 -30 l42 -35 18 22 c22 28
16 42 -16 34 -17 -5 -22 -3 -18 8 3 9 -16 24 -60 47 -58 30 -67 32 -89 20 -26
-14 -63 -8 -53 8 6 10 -25 39 -161 148 -82 66 -104 79 -113 68z m87 -72 c3 -7
-4 -9 -16 -6 -12 3 -18 9 -15 15 7 11 26 6 31 -9z"/>
<path d="M7857 2715 c3 -9 -3 -25 -13 -37 -19 -22 -19 -22 13 0 32 23 36 52 7
52 -8 0 -11 -6 -7 -15z"/>
<path d="M7250 2519 c0 -5 5 -7 10 -4 6 3 10 8 10 11 0 2 -4 4 -10 4 -5 0 -10
-5 -10 -11z"/>
<path d="M3545 2510 c3 -5 12 -10 20 -10 8 0 17 5 20 10 4 6 -5 10 -20 10 -15
0 -24 -4 -20 -10z"/>
<path d="M3641 2502 c-6 -12 -11 -29 -11 -39 1 -11 7 -4 16 16 16 37 12 55 -5
23z"/>
<path d="M7225 2500 c-3 -5 -1 -10 4 -10 6 0 11 5 11 10 0 6 -2 10 -4 10 -3 0
-8 -4 -11 -10z"/>
<path d="M3541 2435 c15 -15 31 -26 37 -24 5 2 -7 14 -27 27 l-36 24 26 -27z"/>
<path d="M7008 2403 c6 -2 18 -2 25 0 6 3 1 5 -13 5 -14 0 -19 -2 -12 -5z"/>
<path d="M5962 2090 c0 -14 2 -19 5 -12 2 6 2 18 0 25 -3 6 -5 1 -5 -13z"/>
<path d="M8296 2094 c-3 -9 -6 -33 -6 -55 0 -31 -6 -46 -27 -65 -27 -25 -28
-28 -29 -149 -1 -114 -3 -127 -28 -169 -25 -42 -34 -95 -19 -109 3 -4 7 -62 8
-129 1 -68 6 -135 9 -149 10 -37 -12 -50 -95 -55 -51 -2 -82 1 -108 13 -20 9
-40 15 -46 13 -5 -1 -30 -7 -55 -14 -38 -9 -45 -15 -48 -39 -4 -33 -3 -34 134
-56 92 -14 113 -21 136 -44 18 -18 38 -27 58 -27 30 0 35 -5 55 -65 l7 -20 8
20 c5 11 11 29 14 39 13 40 25 -2 31 -114 5 -100 4 -113 -8 -97 -15 18 -58 22
-92 7 -20 -8 -19 -9 1 -9 31 -1 45 -24 42 -67 -2 -30 1 -39 15 -42 14 -3 17 4
17 37 0 35 13 61 26 49 2 -3 6 -60 9 -128 3 -68 10 -138 17 -156 18 -50 7 -64
-54 -65 -29 0 -80 -2 -113 -4 -41 -3 -72 1 -97 12 -36 15 -38 15 -68 -10 -24
-20 -38 -25 -60 -20 -22 4 -31 1 -36 -12 -12 -30 18 -44 121 -55 118 -13 115
-13 138 -11 20 1 23 31 3 31 -24 0 -29 20 -10 36 22 17 66 11 102 -12 21 -14
23 -20 17 -64 -7 -50 2 -68 49 -95 13 -8 20 -31 27 -93 10 -89 1 -125 -29
-120 -9 2 -18 -5 -20 -15 -3 -14 4 -17 37 -17 l40 0 3 47 c2 37 7 49 22 51 24
5 36 -14 36 -60 l0 -38 350 0 351 0 -3 108 -3 107 -37 3 c-41 3 -63 23 -54 48
4 12 14 15 34 11 58 -11 62 -2 62 168 0 124 -3 155 -14 155 -7 0 -25 9 -39 20
-14 11 -36 20 -49 20 -13 0 -33 7 -44 15 -31 24 -36 18 -29 -35 l7 -50 -35 0
c-24 0 -39 6 -49 21 -17 27 -76 49 -151 58 -72 8 -83 -1 -67 -59 6 -23 19 -55
29 -71 10 -17 16 -39 14 -50 -3 -11 5 -33 22 -55 45 -59 18 -81 -55 -44 -40
21 -77 25 -96 12 -14 -9 -27 -114 -19 -152 5 -22 17 -34 51 -50 24 -12 44 -28
44 -35 0 -7 10 -25 22 -40 21 -27 21 -28 3 -41 -16 -12 -22 -12 -39 1 -49 35
-98 55 -136 55 -35 0 -43 5 -70 42 -27 37 -29 43 -15 58 22 24 18 66 -10 114
-21 36 -24 48 -15 70 17 46 12 101 -11 122 -19 17 -20 25 -14 79 5 33 8 146 9
251 1 192 7 224 40 224 6 0 18 4 26 10 12 7 12 12 0 34 -11 21 -16 23 -27 14
-23 -19 -34 10 -27 67 7 58 19 70 78 79 62 10 82 26 66 55 -11 21 -13 21 -29
7 -41 -37 -201 -45 -245 -13 -16 12 -16 18 1 92 14 67 24 87 56 122 44 48 56
52 82 23 10 -11 21 -20 25 -20 9 0 4 71 -9 139 -6 29 -11 76 -11 102 0 27 -4
49 -10 49 -6 0 -7 -30 -3 -79 3 -43 3 -90 -1 -105 -9 -36 -43 -35 -57 1 -10
26 -9 63 7 297 3 49 3 104 -1 123 -6 34 -28 44 -39 17z m-6 -349 c0 -52 -4
-95 -9 -95 -23 0 -33 32 -27 87 2 32 5 68 5 81 1 13 7 22 16 22 12 0 15 -17
15 -95z m-133 -561 c5 -14 -23 -44 -41 -44 -7 0 -21 7 -32 15 -19 15 -19 15 1
30 22 17 66 16 72 -1z m157 -830 c8 -21 -3 -56 -15 -49 -12 8 -12 65 0 65 5 0
12 -7 15 -16z"/>
<path d="M5963 1975 c0 -44 2 -61 4 -37 2 23 2 59 0 80 -2 20 -4 1 -4 -43z"/>
<path d="M5961 1874 c0 -11 3 -14 6 -6 3 7 2 16 -1 19 -3 4 -6 -2 -5 -13z"/>
<path d="M5953 1720 c0 -41 2 -58 4 -37 2 20 2 54 0 75 -2 20 -4 3 -4 -38z"/>
<path d="M5940 1615 c0 -14 2 -25 4 -25 2 0 6 11 8 25 3 14 1 25 -3 25 -5 0
-9 -11 -9 -25z"/>
<path d="M8081 1591 c-10 -6 -11 -13 -2 -29 10 -18 8 -24 -13 -37 -29 -19
-101 -17 -101 3 0 7 18 22 40 33 l40 19 -55 -6 c-30 -4 -79 -6 -107 -6 l-53 1
0 -32 c0 -52 6 -55 100 -45 47 5 100 7 119 4 28 -4 38 0 63 26 33 35 34 72 3
76 -11 1 -26 -2 -34 -7z"/>
<path d="M5940 1495 c-2 -33 -4 -67 -5 -75 -1 -8 -5 -53 -9 -100 -19 -220 -44
-363 -107 -615 -17 -66 -48 -194 -70 -285 -34 -142 -56 -223 -100 -364 -13
-43 -11 -56 10 -56 23 0 32 26 96 295 25 105 66 276 91 380 25 105 54 249 64
320 21 151 44 462 38 520 -4 34 -5 32 -8 -20z"/>
<path d="M7921 1364 c-21 -27 -28 -78 -13 -88 9 -6 52 76 52 99 0 23 -16 18
-39 -11z"/>
<path d="M1742 1210 c1 -13 9 -25 16 -28 17 -5 15 23 -4 39 -14 11 -15 10 -12
-11z"/>
<path d="M1751 1101 c-1 -26 2 -32 15 -27 9 3 20 6 25 6 5 0 9 4 9 10 0 5 -6
7 -13 4 -8 -3 -18 5 -25 18 -10 22 -11 21 -11 -11z"/>
<path d="M8967 1109 c-14 -15 -22 -17 -37 -9 -28 15 -36 -23 -15 -71 20 -44
15 -69 -15 -69 -15 0 -20 -7 -20 -27 0 -38 112 -144 191 -182 l59 -28 0 127
c0 105 -3 129 -15 134 -8 3 -20 16 -26 30 -10 22 -14 23 -36 13 -21 -9 -27 -8
-39 8 -8 10 -14 36 -14 57 0 42 -7 46 -33 17z"/>
<path d="M1986 1081 c-3 -5 3 -16 13 -25 16 -14 20 -15 30 -2 7 8 8 16 4 19
-22 12 -43 15 -47 8z"/>
<path d="M7931 979 c-20 -32 -27 -59 -16 -59 8 0 47 82 41 87 -3 3 -14 -10
-25 -28z"/>
<path d="M2000 971 c0 -16 5 -33 10 -36 6 -4 10 6 10 24 0 16 -4 33 -10 36 -6
4 -10 -6 -10 -24z"/>
<path d="M1743 948 c-1 -18 1 -27 4 -20 3 6 20 12 39 12 36 0 40 5 24 30 -8
11 -12 12 -18 3 -5 -8 -13 -9 -22 -3 -23 15 -27 12 -27 -22z"/>
<path d="M6189 865 c-4 -27 -6 -81 -5 -120 1 -40 -2 -73 -8 -77 -8 -6 -8 -10
0 -15 6 -5 14 -18 18 -31 10 -30 25 -19 18 14 -4 21 -2 25 9 19 11 -7 12 -6 2
6 -16 19 -23 118 -11 142 5 10 5 17 -1 17 -5 0 -11 21 -13 48 l-3 47 -6 -50z"/>
<path d="M6268 893 c7 -3 16 -2 19 1 4 3 -2 6 -13 5 -11 0 -14 -3 -6 -6z"/>
<path d="M7912 853 c-28 -6 -56 -46 -48 -71 6 -17 19 -21 89 -26 118 -8 177
-7 177 4 0 6 -13 10 -29 10 -16 0 -36 3 -45 6 -13 5 -11 9 7 27 13 12 19 19
14 15 -5 -3 -32 2 -61 12 -77 27 -79 28 -104 23z"/>
<path d="M2140 832 c0 -4 5 -13 12 -20 13 -13 19 -52 7 -52 -4 0 -20 11 -36
24 -37 31 -73 49 -73 37 0 -5 31 -30 68 -55 39 -26 75 -58 85 -78 10 -18 24
-44 32 -58 14 -23 13 -26 -6 -40 -12 -8 -41 -33 -65 -55 -34 -31 -44 -47 -44
-72 0 -17 5 -35 10 -38 12 -7 56 38 85 86 31 51 50 49 69 -10 9 -27 13 -57 10
-65 -4 -11 -1 -16 10 -16 9 0 16 3 17 8 0 4 2 25 4 46 3 22 1 44 -4 50 -5 6
-8 25 -7 41 2 19 -4 35 -17 44 -10 7 -16 20 -12 28 4 13 3 13 -8 4 -11 -8 -17
-5 -28 17 -13 27 -16 35 -18 60 0 6 -8 12 -16 12 -10 0 -15 10 -15 33 0 77 0
77 -31 77 -16 0 -29 -4 -29 -8z"/>
<path d="M2024 765 c-7 -18 3 -35 21 -35 21 0 28 19 15 35 -16 19 -29 19 -36
0z"/>
<path d="M7165 676 c-15 -11 -17 -21 -11 -64 7 -56 -2 -66 -27 -29 -11 16 -18
19 -27 11 -12 -12 -6 -42 21 -111 12 -29 11 -35 -10 -64 -20 -27 -22 -37 -14
-63 19 -60 -3 -73 -50 -28 -20 18 -31 23 -34 14 -10 -27 -35 -43 -48 -32 -25
21 -24 -6 2 -60 32 -67 52 -208 31 -221 -23 -16 -52 -5 -66 24 -16 34 -37 44
-57 27 -10 -8 -29 -10 -55 -6 -53 8 -80 -6 -80 -44 l0 -30 726 0 c481 0 723 3
719 10 -3 6 -13 10 -20 10 -8 0 -22 12 -31 26 -15 22 -22 25 -50 19 -30 -5
-38 -1 -74 36 l-41 43 -23 -28 c-14 -18 -29 -27 -41 -24 -17 3 -20 12 -21 56
-2 60 -20 112 -39 112 -8 0 -20 -7 -29 -15 -19 -19 -31 -19 -50 0 -11 12 -14
28 -9 66 l6 50 -27 -7 c-14 -3 -32 -2 -39 4 -24 19 -76 20 -94 0 -26 -29 -43
-22 -43 16 0 22 9 45 24 63 37 44 62 111 46 126 -9 9 -15 8 -24 -7 -25 -42
-53 -69 -64 -62 -7 4 -12 32 -12 65 0 37 -5 63 -13 70 -17 14 -27 4 -27 -25 0
-23 -42 -64 -65 -64 -24 0 -57 36 -64 70 -9 44 -38 53 -43 14 -4 -33 -24 -43
-33 -15 -5 16 -12 19 -35 14 -25 -5 -30 -2 -36 20 -9 38 -27 50 -49 33z m173
-229 c2 -10 -3 -17 -11 -17 -16 0 -30 24 -19 34 10 10 27 1 30 -17z"/>
<path d="M7956 608 c-21 -33 -30 -75 -17 -82 6 -4 11 -16 11 -27 0 -12 5 -19
11 -17 16 5 51 96 47 122 -4 29 -34 32 -52 4z"/>
<path d="M6165 610 c3 -5 8 -10 11 -10 2 0 4 5 4 10 0 6 -5 10 -11 10 -5 0 -7
-4 -4 -10z"/>
<path d="M1650 600 c12 -8 11 -10 -7 -10 -13 0 -23 -4 -23 -10 0 -5 7 -10 15
-10 8 0 15 -7 15 -16 0 -12 3 -14 13 -6 6 5 31 13 55 17 46 7 48 30 2 23 -20
-3 -27 -1 -23 9 4 9 -5 13 -28 13 -26 0 -30 -3 -19 -10z"/>
<path d="M8254 585 c-7 -30 2 -59 16 -50 13 8 13 62 0 70 -5 3 -12 -6 -16 -20z"/>
<path d="M6155 490 c4 -6 11 -8 16 -5 14 9 11 15 -7 15 -8 0 -12 -5 -9 -10z"/>
<path d="M6158 442 c-10 -2 -18 -8 -18 -13 0 -13 27 -11 35 2 9 13 4 16 -17
11z"/>
<path d="M6150 369 c0 -5 5 -7 10 -4 6 3 10 8 10 11 0 2 -4 4 -10 4 -5 0 -10
-5 -10 -11z"/>
<path d="M6150 331 c0 -5 7 -12 16 -15 14 -5 15 -4 4 9 -14 17 -20 19 -20 6z"/>
<path d="M6187 293 c-4 -3 -7 -11 -7 -17 0 -6 5 -5 12 2 6 6 9 14 7 17 -3 3
-9 2 -12 -2z"/>
<path d="M2337 210 c3 -11 7 -20 9 -20 2 0 4 9 4 20 0 11 -4 20 -9 20 -5 0 -7
-9 -4 -20z"/>
<path d="M2234 129 c7 -58 23 -116 30 -108 7 9 -18 169 -27 169 -6 0 -7 -23
-3 -61z"/>
</g>
</svg>
